Wavefont-RegularRound.ufo
<glyph name="_2" format="2">
	<unicode hex="0102"/>
	<unicode hex="0062"/>
	<advance width="400"/>
	<outline>
		<component base="cap"/>
		<component base="cap" yOffset="-380"/>
		<contour>
			<point x="0" y="200" type="line"/>
			<point x="0" y="-180" type="line"/>
			<point x="400" y="-180" type="line"/>
			<point x="400" y="200" type="line"/>
		</contour>
	</outline>
</glyph>
<glyph name="_7" format="2">
	<unicode hex="0107"/>
	<advance width="400"/>
	<outline>
		<component base="cap"/>
		<component base="cap" yOffset="-330"/>
		<contour>
			<point x="0" y="200" type="line"/>
			<point x="0" y="-130" type="line"/>
			<point x="400" y="-130" type="line"/>
			<point x="400" y="200" type="line"/>
		</contour>
	</outline>
</glyph>
<glyph name="_10" format="2">
	<unicode hex="010A"/>
	<unicode hex="0031"/>
	<unicode hex="0066"/>
	<advance width="400"/>
	<outline>
		<component base="cap"/>
		<component base="cap" yOffset="-300"/>
		<contour>
			<point x="0" y="200" type="line"/>
			<point x="0" y="-100" type="line"/>
			<point x="400" y="-100" type="line"/>
			<point x="400" y="200" type="line"/>
		</contour>
	</outline>
</glyph>
<glyph name="_21" format="2">
	<unicode hex="0115"/>
	<advance width="400"/>
	<outline>
		<component base="cap"/>
		<component base="cap" yOffset="-190"/>
		<contour>
			<point x="0" y="200" type="line"/>
			<point x="0" y="10" type="line"/>
			<point x="400" y="10" type="line"/>
			<point x="400" y="200" type="line"/>
		</contour>
	</outline>
</glyph>
<glyph name="_28" format="2">
	<unicode hex="011C"/>
	<unicode hex="2583"/>
	<unicode hex="006F"/>
	<advance width="400"/>
	<outline>
		<component base="cap"/>
		<component base="cap" yOffset="-120"/>
		<contour>
			<point x="0" y="200" type="line"/>
			<point x="0" y="80" type="line"/>
			<point x="400" y="80" type="line"/>
			<point x="400" y="200" type="line"/>
		</contour>
	</outline>
</glyph>
<glyph name="_32" format="2">
	<unicode hex="0120"/>
	<unicode hex="0071"/>
	<advance width="400"/>
	<outline>
		<component base="cap"/>
		<component base="cap" yOffset="-80"/>
		<contour>
			<point x="0" y="200" type="line"/>
			<point x="0" y="120" type="line"/>
			<point x="400" y="120" type="line"/>
			<point x="400" y="200" type="line"/>
		</contour>
	</outline>
</glyph>
<glyph name="_40" format="2">
	<unicode hex="0128"/>
	<unicode hex="0034"/>
	<unicode hex="0075"/>
	<advance width="400"/>
	<outline>
		<component base="cap"/>
		<component base="cap"/>
		<contour>
			<point x="0" y="200" type="line"/>
			<point x="0" y="200" type="line"/>
			<point x="400" y="200" type="line"/>
			<point x="400" y="200" type="line"/>
		</contour>
	</outline>
</glyph>
<glyph name="_45" format="2">
	<unicode hex="012D"/>
	<advance width="400"/>
	<outline>
		<component base="cap"/>
		<component base="cap" yOffset="50"/>
		<contour>
			<point x="0" y="200" type="line"/>
			<point x="0" y="250" type="line"/>
			<point x="400" y="250" type="line"/>
			<point x="400" y="200" type="line"/>
		</contour>
	</outline>
</glyph>
<glyph name="_54" format="2">
	<unicode hex="0136"/>
	<unicode hex="0042"/>
	<advance width="400"/>
	<outline>
		<component base="cap"/>
		<component base="cap" yOffset="140"/>
		<contour>
			<point x="0" y="200" type="line"/>
			<point x="0" y="340" type="line"/>
			<point x="400" y="340" type="line"/>
			<point x="400" y="200" type="line"/>
		</contour>
	</outline>
</glyph>
<glyph name="_62" format="2">
	<unicode hex="013E"/>
	<unicode hex="0046"/>
	<advance width="400"/>
	<outline>
		<component base="cap"/>
		<component base="cap" yOffset="220"/>
		<contour>
			<point x="0" y="200" type="line"/>
			<point x="0" y="420" type="line"/>
			<point x="400" y="420" type="line"/>
			<point x="400" y="200" type="line"/>
		</contour>
	</outline>
</glyph>
<glyph name="_69" format="2">
	<unicode hex="0145"/>
	<advance width="400"/>
	<outline>
		<component base="cap"/>
		<component base="cap" yOffset="290"/>
		<contour>
			<point x="0" y="200" type="line"/>
			<point x="0" y="490" type="line"/>
			<point x="400" y="490" type="line"/>
			<point x="400" y="200" type="line"/>
		</contour>
	</outline>
</glyph>
<glyph name="_75" format="2">
	<unicode hex="014B"/>
	<advance width="400"/>
	<outline>
		<component base="cap"/>
		<component base="cap" yOffset="350"/>
		<contour>
			<point x="0" y="200" type="line"/>
			<point x="0" y="550" type="line"/>
			<point x="400" y="550" type="line"/>
			<point x="400" y="200" type="line"/>
		</contour>
	</outline>
</glyph>
<glyph name="_84" format="2">
	<unicode hex="0154"/>
	<unicode hex="0051"/>
	<advance width="400"/>
	<outline>
		<component base="cap"/>
		<component base="cap" yOffset="440"/>
		<contour>
			<point x="0" y="200" type="line"/>
			<point x="0" y="640" type="line"/>
			<point x="400" y="640" type="line"/>
			<point x="400" y="200" type="line"/>
		</contour>
	</outline>
</glyph>
<glyph name="_94" format="2">
	<unicode hex="015E"/>
	<unicode hex="0056"/>
	<advance width="400"/>
	<outline>
		<component base="cap"/>
		<component base="cap" yOffset="540"/>
		<contour>
			<point x="0" y="200" type="line"/>
			<point x="0" y="740" type="line"/>
			<point x="400" y="740" type="line"/>
			<point x="400" y="200" type="line"/>
		</contour>
	</outline>
</glyph>
<glyph name="_95" format="2">
	<unicode hex="015F"/>
	<advance width="400"/>
	<outline>
		<component base="cap"/>
		<component base="cap" yOffset="550"/>
		<contour>
			<point x="0" y="200" type="line"/>
			<point x="0" y="750" type="line"/>
			<point x="400" y="750" type="line"/>
			<point x="400" y="200" type="line"/>
		</contour>
	</outline>
</glyph>
<glyph name="_96" format="2">
	<unicode hex="0160"/>
	<unicode hex="0057"/>
	<advance width="400"/>
	<outline>
		<component base="cap"/>
		<component base="cap" yOffset="560"/>
		<contour>
			<point x="0" y="200" type="line"/>
			<point x="0" y="760" type="line"/>
			<point x="400" y="760" type="line"/>
			<point x="400" y="200" type="line"/>
		</contour>
	</outline>
</glyph>
<glyph name="_105" format="2">
	<unicode hex="0169"/>
	<advance width="400"/>
	<outline>
		<component base="cap"/>
		<component base="cap" yOffset="650"/>
		<contour>
			<point x="0" y="200" type="line"/>
			<point x="0" y="850" type="line"/>
			<point x="400" y="850" type="line"/>
			<point x="400" y="200" type="line"/>
		</contour>
	</outline>
</glyph>
<glyph name="_4.center" format="2">
	<unicode hex="0404"/>
	<advance width="400"/>
	<outline>
		<component base="cap" yOffset="480"/>
		<component base="cap" yOffset="120"/>
		<contour>
			<point x="0" y="680" type="line"/>
			<point x="0" y="320" type="line"/>
			<point x="400" y="320" type="line"/>
			<point x="400" y="680" type="line"/>
		</contour>
	</outline>
</glyph>
<glyph name="_5.center" format="2">
	<unicode hex="0405"/>
	<advance width="400"/>
	<outline>
		<component base="cap" yOffset="475"/>
		<component base="cap" yOffset="125"/>
		<contour>
			<point x="0" y="675" type="line"/>
			<point x="0" y="325" type="line"/>
			<point x="400" y="325" type="line"/>
			<point x="400" y="675" type="line"/>
		</contour>
	</outline>
</glyph>
<glyph name="_8.center" format="2">
	<unicode hex="0408"/>
	<advance width="400"/>
	<outline>
		<component base="cap" yOffset="460"/>
		<component base="cap" yOffset="140"/>
		<contour>
			<point x="0" y="660" type="line"/>
			<point x="0" y="340" type="line"/>
			<point x="400" y="340" type="line"/>
			<point x="400" y="660" type="line"/>
		</contour>
	</outline>
</glyph>
<glyph name="_10.center" format="2">
	<unicode hex="040A"/>
	<advance width="400"/>
	<outline>
		<component base="cap" yOffset="450"/>
		<component base="cap" yOffset="150"/>
		<contour>
			<point x="0" y="650" type="line"/>
			<point x="0" y="350" type="line"/>
			<point x="400" y="350" type="line"/>
			<point x="400" y="650" type="line"/>
		</contour>
	</outline>
</glyph>
<glyph name="_12.center" format="2">
	<unicode hex="040C"/>
	<advance width="400"/>
	<outline>
		<component base="cap" yOffset="440"/>
		<component base="cap" yOffset="160"/>
		<contour>
			<point x="0" y="640" type="line"/>
			<point x="0" y="360" type="line"/>
			<point x="400" y="360" type="line"/>
			<point x="400" y="640" type="line"/>
		</contour>
	</outline>
</glyph>
<glyph name="_15.center" format="2">
	<unicode hex="040F"/>
	<advance width="400"/>
	<outline>
		<component base="cap" yOffset="425"/>
		<component base="cap" yOffset="175"/>
		<contour>
			<point x="0" y="625" type="line"/>
			<point x="0" y="375" type="line"/>
			<point x="400" y="375" type="line"/>
			<point x="400" y="625" type="line"/>
		</contour>
	</outline>
</glyph>
<glyph name="_16.center" format="2">
	<unicode hex="0410"/>
	<advance width="400"/>
	<outline>
		<component base="cap" yOffset="420"/>
		<component base="cap" yOffset="180"/>
		<contour>
			<point x="0" y="620" type="line"/>
			<point x="0" y="380" type="line"/>
			<point x="400" y="380" type="line"/>
			<point x="400" y="620" type="line"/>
		</contour>
	</outline>
</glyph>
<glyph name="_20.center" format="2">
	<unicode hex="0414"/>
	<advance width="400"/>
	<outline>
		<component base="cap" yOffset="400"/>
		<component base="cap" yOffset="200"/>
		<contour>
			<point x="0" y="600" type="line"/>
			<point x="0" y="400" type="line"/>
			<point x="400" y="400" type="line"/>
			<point x="400" y="600" type="line"/>
		</contour>
	</outline>
</glyph>
<glyph name="_24.center" format="2">
	<unicode hex="0418"/>
	<advance width="400"/>
	<outline>
		<component base="cap" yOffset="380"/>
		<component base="cap" yOffset="220"/>
		<contour>
			<point x="0" y="580" type="line"/>
			<point x="0" y="420" type="line"/>
			<point x="400" y="420" type="line"/>
			<point x="400" y="580" type="line"/>
		</contour>
	</outline>
</glyph>
<glyph name="_28.center" format="2">
	<unicode hex="041C"/>
	<advance width="400"/>
	<outline>
		<component base="cap" yOffset="360"/>
		<component base="cap" yOffset="240"/>
		<contour>
			<point x="0" y="560" type="line"/>
			<point x="0" y="440" type="line"/>
			<point x="400" y="440" type="line"/>
			<point x="400" y="560" type="line"/>
		</contour>
	</outline>
</glyph>
<glyph name="_32.center" format="2">
	<unicode hex="0420"/>
	<advance width="400"/>
	<outline>
		<component base="cap" yOffset="340"/>
		<component base="cap" yOffset="260"/>
		<contour>
			<point x="0" y="540" type="line"/>
			<point x="0" y="460" type="line"/>
			<point x="400" y="460" type="line"/>
			<point x="400" y="540" type="line"/>
		</contour>
	</outline>
</glyph>
<glyph name="_35.center" format="2">
	<unicode hex="0423"/>
	<advance width="400"/>
	<outline>
		<component base="cap" yOffset="325"/>
		<component base="cap" yOffset="275"/>
		<contour>
			<point x="0" y="525" type="line"/>
			<point x="0" y="475" type="line"/>
			<point x="400" y="475" type="line"/>
			<point x="400" y="525" type="line"/>
		</contour>
	</outline>
</glyph>
<glyph name="_41.center" format="2">
	<unicode hex="0429"/>
	<advance width="400"/>
	<outline>
		<component base="cap" yOffset="295"/>
		<component base="cap" yOffset="305"/>
		<contour>
			<point x="0" y="495" type="line"/>
			<point x="0" y="505" type="line"/>
			<point x="400" y="505" type="line"/>
			<point x="400" y="495" type="line"/>
		</contour>
	</outline>
</glyph>
<glyph name="_43.center" format="2">
	<unicode hex="042B"/>
	<advance width="400"/>
	<outline>
		<component base="cap" yOffset="285"/>
		<component base="cap" yOffset="315"/>
		<contour>
			<point x="0" y="485" type="line"/>
			<point x="0" y="515" type="line"/>
			<point x="400" y="515" type="line"/>
			<point x="400" y="485" type="line"/>
		</contour>
	</outline>
</glyph>
<glyph name="_52.center" format="2">
	<unicode hex="0434"/>
	<advance width="400"/>
	<outline>
		<component base="cap" yOffset="240"/>
		<component base="cap" yOffset="360"/>
		<contour>
			<point x="0" y="440" type="line"/>
			<point x="0" y="560" type="line"/>
			<point x="400" y="560" type="line"/>
			<point x="400" y="440" type="line"/>
		</contour>
	</outline>
</glyph>
<glyph name="_57.center" format="2">
	<unicode hex="0439"/>
	<advance width="400"/>
	<outline>
		<component base="cap" yOffset="215"/>
		<component base="cap" yOffset="385"/>
		<contour>
			<point x="0" y="415" type="line"/>
			<point x="0" y="585" type="line"/>
			<point x="400" y="585" type="line"/>
			<point x="400" y="415" type="line"/>
		</contour>
	</outline>
</glyph>
<glyph name="_58.center" format="2">
	<unicode hex="043A"/>
	<advance width="400"/>
	<outline>
		<component base="cap" yOffset="210"/>
		<component base="cap" yOffset="390"/>
		<contour>
			<point x="0" y="410" type="line"/>
			<point x="0" y="590" type="line"/>
			<point x="400" y="590" type="line"/>
			<point x="400" y="410" type="line"/>
		</contour>
	</outline>
</glyph>
<glyph name="_61.center" format="2">
	<unicode hex="043D"/>
	<advance width="400"/>
	<outline>
		<component base="cap" yOffset="195"/>
		<component base="cap" yOffset="405"/>
		<contour>
			<point x="0" y="395" type="line"/>
			<point x="0" y="605" type="line"/>
			<point x="400" y="605" type="line"/>
			<point x="400" y="395" type="line"/>
		</contour>
	</outline>
</glyph>
<glyph name="_64.center" format="2">
	<unicode hex="0440"/>
	<advance width="400"/>
	<outline>
		<component base="cap" yOffset="180"/>
		<component base="cap" yOffset="420"/>
		<contour>
			<point x="0" y="380" type="line"/>
			<point x="0" y="620" type="line"/>
			<point x="400" y="620" type="line"/>
			<point x="400" y="380" type="line"/>
		</contour>
	</outline>
</glyph>
<glyph name="_68.center" format="2">
	<unicode hex="0444"/>
	<advance width="400"/>
	<outline>
		<component base="cap" yOffset="160"/>
		<component base="cap" yOffset="440"/>
		<contour>
			<point x="0" y="360" type="line"/>
			<point x="0" y="640" type="line"/>
			<point x="400" y="640" type="line"/>
			<point x="400" y="360" type="line"/>
		</contour>
	</outline>
</glyph>
<glyph name="_69.center" format="2">
	<unicode hex="0445"/>
	<advance width="400"/>
	<outline>
		<component base="cap" yOffset="155"/>
		<component base="cap" yOffset="445"/>
		<contour>
			<point x="0" y="355" type="line"/>
			<point x="0" y="645" type="line"/>
			<point x="400" y="645" type="line"/>
			<point x="400" y="355" type="line"/>
		</contour>
	</outline>
</glyph>
<glyph name="_74.center" format="2">
	<unicode hex="044A"/>
	<advance width="400"/>
	<outline>
		<component base="cap" yOffset="130"/>
		<component base="cap" yOffset="470"/>
		<contour>
			<point x="0" y="330" type="line"/>
			<point x="0" y="670" type="line"/>
			<point x="400" y="670" type="line"/>
			<point x="400" y="330" type="line"/>
		</contour>
	</outline>
</glyph>
<glyph name="_75.center" format="2">
	<unicode hex="044B"/>
	<advance width="400"/>
	<outline>
		<component base="cap" yOffset="125"/>
		<component base="cap" yOffset="475"/>
		<contour>
			<point x="0" y="325" type="line"/>
			<point x="0" y="675" type="line"/>
			<point x="400" y="675" type="line"/>
			<point x="400" y="325" type="line"/>
		</contour>
	</outline>
</glyph>
<glyph name="_76.center" format="2">
	<unicode hex="044C"/>
	<advance width="400"/>
	<outline>
		<component base="cap" yOffset="120"/>
		<component base="cap" yOffset="480"/>
		<contour>
			<point x="0" y="320" type="line"/>
			<point x="0" y="680" type="line"/>
			<point x="400" y="680" type="line"/>
			<point x="400" y="320" type="line"/>
		</contour>
	</outline>
</glyph>
<glyph name="_77.center" format="2">
	<unicode hex="044D"/>
	<advance width="400"/>
	<outline>
		<component base="cap" yOffset="115"/>
		<component base="cap" yOffset="485"/>
		<contour>
			<point x="0" y="315" type="line"/>
			<point x="0" y="685" type="line"/>
			<point x="400" y="685" type="line"/>
			<point x="400" y="315" type="line"/>
		</contour>
	</outline>
</glyph>
<glyph name="_81.center" format="2">
	<unicode hex="0451"/>
	<advance width="400"/>
	<outline>
		<component base="cap" yOffset="95"/>
		<component base="cap" yOffset="505"/>
		<contour>
			<point x="0" y="295" type="line"/>
			<point x="0" y="705" type="line"/>
			<point x="400" y="705" type="line"/>
			<point x="400" y="295" type="line"/>
		</contour>
	</outline>
</glyph>
<glyph name="_95.center" format="2">
	<unicode hex="045F"/>
	<advance width="400"/>
	<outline>
		<component base="cap" yOffset="25"/>
		<component base="cap" yOffset="575"/>
		<contour>
			<point x="0" y="225" type="line"/>
			<point x="0" y="775" type="line"/>
			<point x="400" y="775" type="line"/>
			<point x="400" y="225" type="line"/>
		</contour>
	</outline>
</glyph>
<glyph name="_96.center" format="2">
	<unicode hex="0460"/>
	<advance width="400"/>
	<outline>
		<component base="cap" yOffset="20"/>
		<component base="cap" yOffset="580"/>
		<contour>
			<point x="0" y="220" type="line"/>
			<point x="0" y="780" type="line"/>
			<point x="400" y="780" type="line"/>
			<point x="400" y="220" type="line"/>
		</contour>
	</outline>
</glyph>
<glyph name="_99.center" format="2">
	<unicode hex="0463"/>
	<advance width="400"/>
	<outline>
		<component base="cap" yOffset="5"/>
		<component base="cap" yOffset="595"/>
		<contour>
			<point x="0" y="205" type="line"/>
			<point x="0" y="795" type="line"/>
			<point x="400" y="795" type="line"/>
			<point x="400" y="205" type="line"/>
		</contour>
	</outline>
</glyph>
<glyph name="_105.center" format="2">
	<unicode hex="0469"/>
	<advance width="400"/>
	<outline>
		<component base="cap" yOffset="-25"/>
		<component base="cap" yOffset="625"/>
		<contour>
			<point x="0" y="175" type="line"/>
			<point x="0" y="825" type="line"/>
			<point x="400" y="825" type="line"/>
			<point x="400" y="175" type="line"/>
		</contour>
	</outline>
</glyph>
<glyph name="_106.center" format="2">
	<unicode hex="046A"/>
	<advance width="400"/>
	<outline>
		<component base="cap" yOffset="-30"/>
		<component base="cap" yOffset="630"/>
		<contour>
			<point x="0" y="170" type="line"/>
			<point x="0" y="830" type="line"/>
			<point x="400" y="830" type="line"/>
			<point x="400" y="170" type="line"/>
		</contour>
	</outline>
</glyph>
<glyph name="_107.center" format="2">
	<unicode hex="046B"/>
	<advance width="400"/>
	<outline>
		<component base="cap" yOffset="-35"/>
		<component base="cap" yOffset="635"/>
		<contour>
			<point x="0" y="165" type="line"/>
			<point x="0" y="835" type="line"/>
			<point x="400" y="835" type="line"/>
			<point x="400" y="165" type="line"/>
		</contour>
	</outline>
</glyph>
<glyph name="_12.clip" format="2">
	<advance width="400"/>
	<outline>
		<contour>
			<point x="0" y="93"/>
			<point x="26" y="120"/>
			<point x="60" y="120" type="curve" smooth="yes"/>
			<point x="340" y="120" type="line"/>
			<point x="373" y="120"/>
			<point x="400" y="93"/>
			<point x="400" y="60" type="curve" smooth="yes"/>
			<point x="400" y="60" type="line"/>
			<point x="400" y="26"/>
			<point x="373" y="0"/>
			<point x="340" y="0" type="curve" smooth="yes"/>
			<point x="60" y="0" type="line"/>
			<point x="26" y="0"/>
			<point x="0" y="26"/>
			<point x="0" y="60" type="curve" smooth="yes"/>
			<point x="0" y="60" type="line"/>
		</contour>
	</outline>
</glyph>
<glyph name="_14.clip.center" format="2">
	<advance width="400"/>
	<outline>
		<contour>
			<point x="0" y="538.5"/>
			<point x="31.5" y="570"/>
			<point x="70" y="570" type="curve" smooth="yes"/>
			<point x="330" y="570" type="line"/>
			<point x="368.5" y="570"/>
			<point x="400" y="538.5"/>
			<point x="400" y="500" type="curve" smooth="yes"/>
			<point x="400" y="500" type="line"/>
			<point x="400" y="461.5"/>
			<point x="368.5" y="430"/>
			<point x="330" y="430" type="curve" smooth="yes"/>
			<point x="70" y="430" type="line"/>
			<point x="31.5" y="430"/>
			<point x="0" y="461.5"/>
			<point x="0" y="500" type="curve" smooth="yes"/>
			<point x="0" y="500" type="line"/>
		</contour>
	</outline>
</glyph>
<glyph name="_14.clip" format="2">
	<advance width="400"/>
	<outline>
		<contour>
			<point x="0" y="108.5"/>
			<point x="31.5" y="140"/>
			<point x="70" y="140" type="curve" smooth="yes"/>
			<point x="330" y="140" type="line"/>
			<point x="368.5" y="140"/>
			<point x="400" y="108.5"/>
			<point x="400" y="70" type="curve" smooth="yes"/>
			<point x="400" y="70" type="line"/>
			<point x="400" y="31.5"/>
			<point x="368.5" y="0"/>
			<point x="330" y="0" type="curve" smooth="yes"/>
			<point x="70" y="0" type="line"/>
			<point x="31.5" y="0"/>
			<point x="0" y="31.5"/>
			<point x="0" y="70" type="curve" smooth="yes"/>
			<point x="0" y="70" type="line"/>
		</contour>
	</outline>
</glyph>
<glyph name="_2.clip" format="2">
	<advance width="400"/>
	<outline>
		<contour>
			<point x="0" y="15.5"/>
			<point x="4.5" y="20"/>
			<point x="10" y="20" type="curve" smooth="yes"/>
			<point x="390" y="20" type="line"/>
			<point x="395.5" y="20"/>
			<point x="400" y="15.5"/>
			<point x="400" y="10" type="curve" smooth="yes"/>
			<point x="400" y="10" type="line"/>
			<point x="400" y="4.5"/>
			<point x="395.5" y="0"/>
			<point x="390" y="0" type="curve" smooth="yes"/>
			<point x="10" y="0" type="line"/>
			<point x="4.5" y="0"/>
			<point x="0" y="4.5"/>
			<point x="0" y="10" type="curve" smooth="yes"/>
			<point x="0" y="10" type="line"/>
		</contour>
	</outline>
</glyph>
<glyph name="_26.clip" format="2">
	<advance width="400"/>
	<outline>
		<contour>
			<point x="0" y="201.5"/>
			<point x="58.5" y="260"/>
			<point x="130" y="260" type="curve" smooth="yes"/>
			<point x="270" y="260" type="line"/>
			<point x="341.5" y="260"/>
			<point x="400" y="201.5"/>
			<point x="400" y="130" type="curve" smooth="yes"/>
			<point x="400" y="130" type="line"/>
			<point x="400" y="58.5"/>
			<point x="341.5" y="0"/>
			<point x="270" y="0" type="curve" smooth="yes"/>
			<point x="130" y="0" type="line"/>
			<point x="58.5" y="0"/>
			<point x="0" y="58.5"/>
			<point x="0" y="130" type="curve" smooth="yes"/>
			<point x="0" y="130" type="line"/>
		</contour>
	</outline>
</glyph>
<glyph name="_31.clip" format="2">
	<advance width="400"/>
	<outline>
		<contour>
			<point x="0" y="240.25"/>
			<point x="69.75" y="310"/>
			<point x="155" y="310" type="curve" smooth="yes"/>
			<point x="245" y="310" type="line"/>
			<point x="330.25" y="310"/>
			<point x="400" y="240.25"/>
			<point x="400" y="155" type="curve" smooth="yes"/>
			<point x="400" y="155" type="line"/>
			<point x="400" y="69.75"/>
			<point x="330.25" y="0"/>
			<point x="245" y="0" type="curve" smooth="yes"/>
			<point x="155" y="0" type="line"/>
			<point x="69.75" y="0"/>
			<point x="0" y="69.75"/>
			<point x="0" y="155" type="curve" smooth="yes"/>
			<point x="0" y="155" type="line"/>
		</contour>
	</outline>
</glyph>
<glyph name="_32.clip" format="2">
	<advance width="400"/>
	<outline>
		<contour>
			<point x="0" y="248"/>
			<point x="72" y="320"/>
			<point x="160" y="320" type="curve" smooth="yes"/>
			<point x="240" y="320" type="line"/>
			<point x="328" y="320"/>
			<point x="400" y="248"/>
			<point x="400" y="160" type="curve" smooth="yes"/>
			<point x="400" y="160" type="line"/>
			<point x="400" y="72"/>
			<point x="328" y="0"/>
			<point x="240" y="0" type="curve" smooth="yes"/>
			<point x="160" y="0" type="line"/>
			<point x="72" y="0"/>
			<point x="0" y="72"/>
			<point x="0" y="160" type="curve" smooth="yes"/>
			<point x="0" y="160" type="line"/>
		</contour>
	</outline>
</glyph>
<glyph name="_34.clip.center" format="2">
	<advance width="400"/>
	<outline>
		<contour>
			<point x="0" y="593.5"/>
			<point x="76.5" y="670"/>
			<point x="170" y="670" type="curve" smooth="yes"/>
			<point x="230" y="670" type="line"/>
			<point x="323.5" y="670"/>
			<point x="400" y="593.5"/>
			<point x="400" y="500" type="curve" smooth="yes"/>
			<point x="400" y="500" type="line"/>
			<point x="400" y="406.5"/>
			<point x="323.5" y="330"/>
			<point x="230" y="330" type="curve" smooth="yes"/>
			<point x="170" y="330" type="line"/>
			<point x="76.5" y="330"/>
			<point x="0" y="406.5"/>
			<point x="0" y="500" type="curve" smooth="yes"/>
			<point x="0" y="500" type="line"/>
		</contour>
	</outline>
</glyph>
<glyph name="_36.clip" format="2">
	<advance width="400"/>
	<outline>
		<contour>
			<point x="0" y="279"/>
			<point x="80" y="360"/>
			<point x="180" y="360" type="curve" smooth="yes"/>
			<point x="220" y="360" type="line"/>
			<point x="319" y="360"/>
			<point x="400" y="279"/>
			<point x="400" y="180" type="curve" smooth="yes"/>
			<point x="400" y="180" type="line"/>
			<point x="400" y="80"/>
			<point x="319" y="0"/>
			<point x="220" y="0" type="curve" smooth="yes"/>
			<point x="180" y="0" type="line"/>
			<point x="80" y="0"/>
			<point x="0" y="80"/>
			<point x="0" y="180" type="curve" smooth="yes"/>
			<point x="0" y="180" type="line"/>
		</contour>
	</outline>
</glyph>
<glyph name="_38.clip.center" format="2">
	<advance width="400"/>
	<outline>
		<contour>
			<point x="0" y="604.5"/>
			<point x="85.5" y="690"/>
			<point x="190" y="690" type="curve" smooth="yes"/>
			<point x="210" y="690" type="line"/>
			<point x="314.5" y="690"/>
			<point x="400" y="604.5"/>
			<point x="400" y="500" type="curve" smooth="yes"/>
			<point x="400" y="500" type="line"/>
			<point x="400" y="395.5"/>
			<point x="314.5" y="310"/>
			<point x="210" y="310" type="curve" smooth="yes"/>
			<point x="190" y="310" type="line"/>
			<point x="85.5" y="310"/>
			<point x="0" y="395.5"/>
			<point x="0" y="500" type="curve" smooth="yes"/>
			<point x="0" y="500" type="line"/>
		</contour>
	</outline>
</glyph>
